<svg width="14" height="16" viewBox="0 0 14 16" fill="none" xmlns="http://www.w3.org/2000/svg">
<path d="M9.14076 13.6987C8.47949 13.9749 7.75963 14.1339 6.99791 14.1339C5.66699 14.1339 4.45326 13.6568 3.49902 12.8783C3.49902 12.8783 3.57436 12.9286 3.62458 12.9704C4.67927 10.6769 7.93541 9.5385 7.93541 9.5385C7.94378 9.5385 7.96052 9.53013 7.96889 9.53013C8.73898 11.5391 9.05706 13.2132 9.14076 13.6987ZM7.59222 8.61775C7.52525 8.64286 7.44992 8.6596 7.37458 8.68471C7.37458 8.68471 4.41141 9.63895 2.91309 12.3092C2.04255 11.3382 1.50684 10.0491 1.50684 8.64286C1.50684 8.58426 1.50684 8.52567 1.51521 8.46708C1.60728 8.46708 4.31934 8.53404 7.14858 7.68862C7.30762 7.99833 7.45829 8.30804 7.59222 8.61775ZM6.69657 6.84319C4.05985 7.53795 1.76632 7.51283 1.62402 7.51283C1.98396 5.81362 3.12235 4.399 4.65416 3.67913C4.72949 3.77958 5.74233 5.15234 6.69657 6.84319ZM12.422 9.51339C12.1709 11.0452 11.3004 12.3677 10.0699 13.1964C10.0113 12.87 9.71833 11.2545 8.99847 9.27065C10.773 8.99442 12.3048 9.47991 12.422 9.51339ZM5.68373 3.31083C5.67536 3.31083 5.66699 3.3192 5.66699 3.3192C5.67536 3.31083 5.67536 3.31083 5.68373 3.31083ZM10.6224 4.52455C10.6056 4.54966 9.82715 5.73828 7.75963 6.50837C6.82213 4.78404 5.78418 3.41964 5.70047 3.31083C6.119 3.21038 6.55427 3.15179 6.99791 3.15179C8.38742 3.15179 9.65974 3.67076 10.6224 4.52455ZM12.489 8.58426C12.422 8.57589 10.5554 8.16574 8.66364 8.40848C8.62179 8.31641 8.58831 8.21596 8.54646 8.12388C8.42927 7.85603 8.30371 7.58817 8.17815 7.32868C10.3461 6.44141 11.225 5.16908 11.2418 5.15234C12.0119 6.08984 12.4722 7.28683 12.489 8.58426ZM13.4265 8.64286C13.4265 5.09375 10.547 2.21429 6.99791 2.21429C3.4488 2.21429 0.569336 5.09375 0.569336 8.64286C0.569336 12.192 3.4488 15.0714 6.99791 15.0714C10.547 15.0714 13.4265 12.192 13.4265 8.64286Z" fill="white"/>
</svg>
