<svg width="14" height="14" viewBox="0 0 14 14" fill="none" xmlns="http://www.w3.org/2000/svg">
<path d="M11.0158 0.714285H2.98005C1.64914 0.714285 0.569336 1.79408 0.569336 3.125V11.1607C0.569336 12.4916 1.64914 13.5714 2.98005 13.5714H7.43318V8.59096H5.75907V6.649H7.43318V5.21763C7.43318 3.56027 8.45438 2.65625 9.93597 2.65625C10.6391 2.65625 11.2501 2.70647 11.4259 2.73158V4.46429L10.4047 4.47266C9.59277 4.47266 9.4421 4.84933 9.4421 5.41016V6.649H11.359L11.1078 8.59096H9.4421V13.5714H11.0158C12.3467 13.5714 13.4265 12.4916 13.4265 11.1607V3.125C13.4265 1.79408 12.3467 0.714285 11.0158 0.714285Z" fill="white"/>
</svg>
