<svg width="14" height="14" viewBox="0 0 14 14" fill="none" xmlns="http://www.w3.org/2000/svg">
<path d="M8.24512 7.21819C8.24512 9.05134 7.01465 10.3571 5.16476 10.3571C3.38184 10.3571 1.95047 8.91741 1.95047 7.14286C1.95047 5.3683 3.38184 3.92857 5.16476 3.92857C5.9767 3.92857 6.72168 4.21317 7.31599 4.76562L6.44545 5.61105C6.10226 5.27623 5.63351 5.11719 5.16476 5.11719C4.05148 5.11719 3.1642 6.03795 3.1642 7.14286C3.1642 8.24777 4.05148 9.16853 5.16476 9.16853C6.01018 9.16853 6.84724 8.67466 6.98117 7.78739H5.16476V6.68248H8.19489C8.22838 6.85826 8.24512 7.03404 8.24512 7.21819ZM11.133 7.60324V8.524H10.2122V7.60324H9.29143V6.68248H10.2122V5.76172H11.133V6.68248H12.0453V7.60324H11.133ZM13.4265 7.14286C13.4265 3.59375 10.547 0.714285 6.99791 0.714285C3.4488 0.714285 0.569336 3.59375 0.569336 7.14286C0.569336 10.692 3.4488 13.5714 6.99791 13.5714C10.547 13.5714 13.4265 10.692 13.4265 7.14286Z" fill="white"/>
</svg>
