<svg width="31" height="31" viewBox="0 0 31 31" fill="none" xmlns="http://www.w3.org/2000/svg">
<path fill-rule="evenodd" clip-rule="evenodd" d="M23.0713 29.8355H7.72922C6.40529 29.8355 5.33203 28.7584 5.33203 27.4296V3.37034C5.33203 2.04159 6.40529 0.964417 7.72922 0.964417H23.0713C23.707 0.964417 24.3168 1.2179 24.7663 1.6691C25.2159 2.12029 25.4685 2.73225 25.4685 3.37034V27.4296C25.4685 28.7584 24.3952 29.8355 23.0713 29.8355Z" stroke="#F96332" stroke-width="1.5" stroke-linecap="square"/>
<path fill-rule="evenodd" clip-rule="evenodd" d="M15.4002 26.4672C16.4593 26.4672 17.3179 25.6055 17.3179 24.5425C17.3179 23.4795 16.4593 22.6177 15.4002 22.6177C14.341 22.6177 13.4824 23.4795 13.4824 24.5425C13.4824 25.6055 14.341 26.4672 15.4002 26.4672Z" stroke="#F96332" stroke-width="1.5" stroke-linecap="square"/>
</svg>
