<svg width="32" height="27" viewBox="0 0 32 27" fill="none" xmlns="http://www.w3.org/2000/svg">
<path d="M14.7833 3.92857C14.7833 1.91741 13.1516 0.285713 11.1405 0.285713H3.85477C1.84361 0.285713 0.211914 1.91741 0.211914 3.92857V11.2143C0.211914 13.2254 1.84361 14.8571 3.85477 14.8571H8.10477C9.11035 14.8571 9.9262 15.673 9.9262 16.6786V17.2857C9.9262 19.9609 7.74428 22.1429 5.06906 22.1429H3.85477C3.19071 22.1429 2.64049 22.6931 2.64049 23.3571V25.7857C2.64049 26.4498 3.19071 27 3.85477 27H5.06906C10.4195 27 14.7833 22.6362 14.7833 17.2857V3.92857ZM31.7833 3.92857C31.7833 1.91741 30.1516 0.285713 28.1405 0.285713H20.8548C18.8436 0.285713 17.2119 1.91741 17.2119 3.92857V11.2143C17.2119 13.2254 18.8436 14.8571 20.8548 14.8571H25.1048C26.1104 14.8571 26.9262 15.673 26.9262 16.6786V17.2857C26.9262 19.9609 24.7443 22.1429 22.0691 22.1429H20.8548C20.1907 22.1429 19.6405 22.6931 19.6405 23.3571V25.7857C19.6405 26.4498 20.1907 27 20.8548 27H22.0691C27.4195 27 31.7833 22.6362 31.7833 17.2857V3.92857Z" fill="#F96332"/>
</svg>
