<svg width="16" height="16" viewBox="0 0 16 16" fill="none" xmlns="http://www.w3.org/2000/svg">
<path fill-rule="evenodd" clip-rule="evenodd" d="M7.99962 10.9257V10.9257C6.6533 10.9257 5.56152 9.83393 5.56152 8.48762V7.02476C5.56152 5.67845 6.6533 4.58667 7.99962 4.58667V4.58667C9.34593 4.58667 10.4377 5.67845 10.4377 7.02476V8.48762C10.4377 9.83393 9.34593 10.9257 7.99962 10.9257Z" stroke="white" stroke-width="0.8" stroke-linecap="round" stroke-linejoin="round"/>
<path d="M11.9346 14.1669C11.2051 13.3755 10.1577 12.8762 8.99672 12.8762H7.00187C5.84134 12.8762 4.79344 13.3755 4.06445 14.1669" stroke="white" stroke-width="0.8" stroke-linecap="round" stroke-linejoin="round"/>
<path fill-rule="evenodd" clip-rule="evenodd" d="M7.99983 15.3143C12.0394 15.3143 15.3141 12.0396 15.3141 8C15.3141 3.96043 12.0394 0.685715 7.99983 0.685715C3.96026 0.685715 0.685547 3.96043 0.685547 8C0.685547 12.0396 3.96026 15.3143 7.99983 15.3143Z" stroke="white" stroke-width="0.8" stroke-linecap="round" stroke-linejoin="round"/>
</svg>
