<svg width="19" height="19" viewBox="0 0 19 19" fill="none" xmlns="http://www.w3.org/2000/svg">
<path fill-rule="evenodd" clip-rule="evenodd" d="M9.50013 10.0066C10.8993 10.0066 12.0335 8.8724 12.0335 7.47327C12.0335 6.07415 10.8993 4.93994 9.50013 4.93994C8.10101 4.93994 6.9668 6.07415 6.9668 7.47327C6.9668 8.8724 8.10101 10.0066 9.50013 10.0066Z" stroke="#555555" stroke-linecap="round" stroke-linejoin="round"/>
<path d="M14.5195 15.1959C13.5947 13.2635 11.6427 12.0337 9.50049 12.0337C7.35824 12.0337 5.40624 13.2635 4.48145 15.1959" stroke="#555555" stroke-linecap="round" stroke-linejoin="round"/>
<path fill-rule="evenodd" clip-rule="evenodd" d="M9.50039 17.0999C13.6978 17.0999 17.1004 13.6973 17.1004 9.4999C17.1004 5.30254 13.6978 1.8999 9.50039 1.8999C5.30303 1.8999 1.90039 5.30254 1.90039 9.4999C1.90039 13.6973 5.30303 17.0999 9.50039 17.0999Z" stroke="#555555" stroke-linecap="round" stroke-linejoin="round"/>
</svg>
